<svg width="73" height="73" viewBox="0 0 73 73" fill="none" xmlns="http://www.w3.org/2000/svg">
<path d="M33.6523 0.547852C35.4853 0.478265 37.4458 0.476965 39.2695 0.597656C39.5569 0.616651 39.9092 0.686795 40.3008 0.773438C40.6755 0.856346 41.0922 0.95589 41.4531 1.00879C42.3155 1.13532 43.1455 1.25847 43.9961 1.4082L44.0273 1.41211C44.5741 1.47396 45.1211 1.63809 45.6934 1.83691C46.248 2.02961 46.8551 2.26624 47.4424 2.42871C51.3223 3.50179 54.8408 5.44597 57.9326 8.03613C58.5395 8.5446 59.2463 9.05578 59.8906 9.55566C60.5492 10.0667 61.169 10.585 61.6748 11.1514C62.0922 11.6186 62.4896 12.1411 62.8916 12.6846C63.2891 13.2221 63.6955 13.7859 64.1152 14.3066L64.1172 14.3096C64.2748 14.5021 64.6333 14.9204 64.9561 15.3066C65.3016 15.7201 65.5851 16.0725 65.6572 16.1934V16.1924C67.4137 19.1377 68.9993 21.9982 69.8916 25.2568C69.9833 25.5916 70.1381 25.9926 70.2705 26.3496C70.3754 26.6324 70.4675 26.89 70.5283 27.1094L70.5781 27.3154C70.6647 27.7521 70.7179 28.2075 70.7734 28.6885C70.8281 29.1624 70.8848 29.6618 70.9805 30.1514C71.0416 30.464 71.2192 30.8828 71.3506 31.208C71.422 31.3846 71.4859 31.5472 71.5342 31.6904C71.5848 31.8405 71.6058 31.9347 71.6094 31.9824C71.7977 34.519 71.7316 37.2286 71.6279 39.8018C71.6184 40.0378 71.5174 40.4324 71.375 40.9102C71.2437 41.3508 71.0788 41.8583 71.001 42.2217C70.8261 43.0379 70.7004 43.8141 70.5615 44.6123C70.5032 44.9474 70.3978 45.2839 70.2754 45.6416C70.1569 45.9876 70.0161 46.3698 69.916 46.7432L69.915 46.7451C69.1012 49.8396 67.7102 52.5692 66.0273 55.3213C65.9294 55.4813 65.771 55.6718 65.6113 55.8701V55.8711C65.2028 56.379 64.812 56.8829 64.4209 57.4053C63.6264 58.4663 62.9543 59.5733 62.1035 60.4414C60.069 62.5172 57.7253 64.2591 55.3135 65.9424C49.2417 69.9749 40.6352 72.1229 33.3867 71.5371C32.7343 71.4844 31.6594 71.2529 30.9297 71.1074L30.9082 71.1025L30.8867 71.1006L30.2949 71.0283C27.4214 70.6436 25.7225 69.8951 22.7598 68.8857L22.7412 68.8799L22.7236 68.875L22.5791 68.8291C22.4116 68.7682 22.1745 68.6632 21.875 68.5215C21.6826 68.4305 21.4747 68.3297 21.2568 68.2236C21.04 68.1181 20.8137 68.007 20.5869 67.8994C20.1359 67.6855 19.6696 67.4755 19.2578 67.3281C19.0518 67.2544 18.8483 67.1925 18.6602 67.1543C18.48 67.1177 18.274 67.0941 18.0791 67.1289C16.3877 67.4316 14.637 67.8929 12.9062 68.3506C11.1678 68.8103 9.44884 69.2666 7.78906 69.5752C7.40759 69.6462 6.849 69.8051 6.23535 69.9863C5.60935 70.1712 4.91193 70.3841 4.21875 70.5801C3.52591 70.776 2.85632 70.9486 2.29688 71.0518C2.01714 71.1033 1.77493 71.1361 1.57715 71.1465C1.51133 71.1499 1.45429 71.1485 1.40527 71.1475C1.40501 71.1455 1.40456 71.1436 1.4043 71.1416C1.38964 71.0297 1.38969 70.8806 1.40723 70.6953C1.44238 70.3242 1.54291 69.8695 1.6748 69.3877C1.8058 68.9092 1.96209 68.4247 2.10156 67.9941C2.23684 67.5765 2.36421 67.1851 2.42383 66.9287C3.15862 63.7684 4.05169 60.6586 4.89355 57.5039C4.94342 57.3172 5.0222 57.0812 5.11621 56.7959C5.20768 56.5183 5.3099 56.2043 5.39453 55.8877C5.47877 55.5725 5.55007 55.2384 5.5752 54.9199C5.59981 54.6076 5.58426 54.2647 5.4541 53.959C5.14408 53.2308 4.73878 52.5253 4.36426 51.8525C3.98351 51.1686 3.63023 50.5111 3.38281 49.834L3.37109 49.8027L3.35547 49.7725L3.26758 49.5957C3.06978 49.1724 2.92036 48.6794 2.77441 48.1494C2.65372 47.7111 2.53325 47.2382 2.38672 46.7988L2.23047 46.373L2.1084 46.0605C1.52663 44.5177 1.3794 43.2243 1.13184 41.4766C1.05811 40.9562 0.922359 40.4366 0.808594 39.957C0.691882 39.465 0.593451 38.9975 0.56543 38.5225C0.417596 36.0165 0.501814 33.5413 1.01562 31.1045V31.0996C1.12507 30.558 1.20433 29.9902 1.28418 29.4414C1.36502 28.8858 1.44778 28.3441 1.56738 27.8252V27.8242C2.74655 22.6314 5.15833 17.798 8.59961 13.7344L8.60059 13.7354C12.987 8.59744 17.9706 4.6036 24.3564 2.58496C24.815 2.47956 25.3804 2.24874 25.875 2.05566C26.4158 1.84459 26.8772 1.67767 27.207 1.6377C28.2586 1.51058 29.4028 1.27241 30.5078 1.05176C31.6171 0.830252 32.6896 0.625874 33.6523 0.547852ZM27.0059 19.4521C26.2199 18.9647 25.3874 18.6162 24.2607 18.7998C23.2701 18.8794 22.6289 19.0097 22.0654 19.3408C21.526 19.6579 21.0882 20.1479 20.4736 20.7939C18.5189 22.8341 17.6613 25.7759 17.8584 28.5381C18.0764 31.5914 19.4521 33.8426 20.9229 36.2256C23.1771 39.8781 25.9014 43.0416 29.0176 45.9824C29.8714 46.7881 31.0067 47.5439 32.1572 48.2305C33.3055 48.9156 34.5145 49.5572 35.4922 50.1084L35.5176 50.123L35.5439 50.1338C36.9885 50.7403 38.9991 51.6071 41.042 52.29C43.0693 52.9678 45.2033 53.491 46.8857 53.3643C47.9498 53.284 49.1434 52.8549 50.2275 52.3008C51.309 51.748 52.3247 51.0477 53.0508 50.3779L53.0518 50.3789C53.9074 49.6489 54.3446 48.5211 54.5576 47.415C54.7728 46.2974 54.7739 45.1242 54.6943 44.2129L54.6768 44.0068L54.5176 43.873L54.166 43.5977C53.2675 42.93 51.8383 42.107 50.375 41.4053C48.7138 40.6087 46.9046 39.9174 45.7051 39.8164C45.4504 39.795 45.2162 39.8969 45.0469 39.9932C44.8639 40.0973 44.6761 40.2416 44.4941 40.4014C44.1288 40.7221 43.7306 41.155 43.3516 41.6006C42.6499 42.4254 41.9758 43.3424 41.6436 43.8057C41.3773 43.9311 41.0857 44.0687 40.8086 44.207C40.0329 43.9876 39.2113 43.7523 38.5566 43.4385C37.177 42.7771 35.9417 41.8184 34.6162 40.9023C33.5373 40.1565 32.1609 38.9265 30.9287 37.5703C29.726 36.2466 28.7024 34.8468 28.2139 33.6992C28.312 32.329 28.9974 31.5877 29.6914 30.7803C30.0407 30.3739 30.4174 29.9203 30.6377 29.3652C30.867 28.7871 30.9145 28.1344 30.6904 27.3398C30.357 26.158 29.7672 24.8511 29.1699 23.5791C28.5648 22.2904 27.9532 21.0378 27.5352 19.9121L27.4785 19.7607L27.3438 19.6709L27.0059 19.4521Z" stroke="#0E409F"/>
</svg>
