<svg width="79" height="82" viewBox="0 0 79 82" fill="none" xmlns="http://www.w3.org/2000/svg">
<path d="M33.4434 0.55957C37.3242 0.344896 41.2157 0.709905 44.9893 1.6416V1.64062C45.3899 1.74402 45.7943 1.88984 46.2188 2.04395C46.5317 2.15758 46.8576 2.27739 47.1846 2.37793L47.5117 2.4707C52.5724 3.79254 56.736 6.90012 60.7227 10.3145C61.6301 11.0917 62.3388 12.0188 63.084 12.999L63.8496 13.9941C64.2225 14.4808 64.631 14.957 64.9902 15.4033C65.3601 15.8628 65.7017 16.3174 65.9912 16.8125C67.5172 19.4226 68.9209 21.9197 69.7012 24.7793C69.8156 25.1988 69.9875 25.6376 70.1396 26.04C70.2969 26.4559 70.4365 26.8411 70.5156 27.2021C70.6067 27.6178 70.6676 28.0509 70.7314 28.5068C70.7939 28.9526 70.8592 29.421 70.959 29.8789V29.8799C71.0171 30.1714 71.1936 30.7379 71.3418 31.2266C71.4189 31.481 71.491 31.7234 71.5449 31.9219C71.5719 32.0212 71.5939 32.1048 71.6084 32.1709C71.6239 32.2415 71.6259 32.2702 71.626 32.2705C71.7453 34.7538 71.7618 37.5694 71.6016 40.042C71.5952 40.1396 71.5623 40.3045 71.5 40.5361C71.4397 40.7602 71.3606 41.0157 71.2764 41.2842C71.1154 41.7972 70.9215 42.3943 70.8604 42.7959C70.7457 43.5482 70.6514 44.284 70.4902 44.9717C70.4896 44.9744 70.4879 44.9769 70.4873 44.9795C70.3123 44.9042 70.0874 44.7937 69.8232 44.6436C69.3953 44.4004 68.9024 44.0834 68.415 43.7363C67.9276 43.3892 67.4527 43.0168 67.0576 42.666C66.7108 42.358 66.4486 42.0836 66.2891 41.8701C66.2591 41.2226 66.3119 40.5495 66.3809 39.8584C66.4534 39.1315 66.5461 38.3692 66.5547 37.6572C66.5711 36.2912 66.6373 34.7915 66.5508 33.3311C66.465 31.8821 66.2261 30.4239 65.6191 29.083C65.6187 29.0807 65.6186 29.0779 65.6182 29.0752C65.6146 29.0545 65.6106 29.0277 65.6064 28.9941C65.598 28.9261 65.5894 28.8431 65.5801 28.7441C65.5619 28.552 65.541 28.3075 65.5068 28.0713C65.4736 27.8409 65.4236 27.5808 65.3369 27.3633C65.2669 27.1877 65.0867 26.8225 64.6738 26.7676C63.4596 26.6062 62.2131 26.5953 60.9883 26.6123C59.7518 26.6295 58.5501 26.6739 57.3721 26.6299C57.0451 26.6177 56.2962 26.6059 55.5723 26.6162C55.2103 26.6214 54.8484 26.6326 54.5459 26.6523C54.2697 26.6704 53.971 26.6984 53.7852 26.7627L53.542 26.8477L53.4688 27.0947C53.4482 27.1647 53.4455 27.2384 53.4453 27.2422C53.4436 27.2705 53.4423 27.3039 53.4414 27.3389C53.4396 27.4097 53.4388 27.5046 53.4385 27.6182C53.4379 27.8463 53.4406 28.1619 53.4443 28.5361C53.4518 29.2853 53.4658 30.2778 53.4814 31.2959C53.5076 32.9908 53.5347 34.745 53.5391 35.5859C52.0152 35.9162 50.4128 36.344 48.9893 37.1201C48.8807 37.1793 48.7841 37.2482 48.708 37.3057C48.6741 37.3312 48.645 37.3522 48.6191 37.3721C48.5755 37.1044 48.5428 36.7397 48.5176 36.2959C48.4662 35.3924 48.4501 34.2248 48.4277 33.0068C48.4055 31.7967 48.3775 30.5404 48.2988 29.4844C48.2595 28.9563 48.2064 28.4681 48.1338 28.0557C48.0634 27.6557 47.9668 27.2796 47.8174 27.0049L47.7119 26.8105L47.4971 26.7578L47.3145 26.7227C47.1134 26.691 46.8625 26.6711 46.6035 26.6572C46.2455 26.638 45.8275 26.6285 45.4111 26.624C44.5828 26.6151 43.7239 26.6262 43.3389 26.626H43.3379L35.9062 26.627H29.1504C28.0432 26.6281 26.1066 26.5834 24.9854 26.7373L24.8232 26.7588L24.7061 26.873C24.5637 27.0111 24.4647 27.1927 24.3916 27.3652C24.3156 27.5447 24.2508 27.7542 24.1953 27.9814C24.0843 28.4361 23.9981 29.0065 23.9297 29.6445C23.7927 30.9233 23.7238 32.5293 23.6953 34.1445C23.6384 37.3742 23.7428 40.6934 23.8066 41.6191C23.8796 42.7562 24.0289 43.887 24.2539 45.0039L24.3213 45.3369L24.6543 45.3975C24.9319 45.448 25.4558 45.4768 26.0596 45.4951C26.6788 45.5139 27.4257 45.5225 28.1768 45.5254C29.6797 45.5312 31.2122 45.5141 31.8027 45.5059C35.9405 45.4479 40.4844 45.6213 44.6719 45.4385C44.6005 47.0483 44.6403 48.9604 44.6533 50.5576L41.0498 50.5381C36.0448 50.5059 31.039 50.5183 26.0342 50.5762L25.4541 50.583L25.5469 51.1562C25.9473 53.6429 27.4076 57.4855 28.4932 59.7422L28.5068 59.7715L28.5254 59.7988C29.2047 60.8401 30.0039 62.2485 30.835 63.2656C32.2603 65.0097 33.6597 65.9828 35.0371 66.3086C36.4298 66.6379 37.7181 66.2869 38.8672 65.5557C40.0059 64.831 41.0269 63.7228 41.9287 62.4902C42.8334 61.2537 43.6374 59.8639 44.335 58.5508C44.4206 58.3894 44.4923 58.1867 44.5537 57.9854C44.6029 58.443 44.6217 58.9091 44.6289 59.2266C44.6691 61.0156 44.6568 62.8066 44.6484 64.6074C44.6401 66.3999 44.6355 68.201 44.6934 70.0029C44.6913 70.1066 44.6632 70.2763 44.6045 70.4189C44.5755 70.4894 44.5465 70.5343 44.5264 70.5576C44.5254 70.5587 44.5243 70.5596 44.5234 70.5605C33.7572 73.3592 21.9269 70.3507 13.335 63.3271C8.2988 59.2102 3.66383 52.4507 2.16406 46.0381C2.13232 45.895 2.06106 45.7611 2.01172 45.6748C1.95393 45.5737 1.88293 45.4647 1.82617 45.376C1.76429 45.2792 1.71719 45.2019 1.68457 45.1396C1.67452 45.1205 1.66886 45.1065 1.66504 45.0977C1.64665 44.136 1.41211 43.0098 1.1748 41.9629C0.926255 40.8664 0.679018 39.8644 0.608398 39.0957C0.10109 33.5709 1.42623 26.7096 3.6123 21.6328L3.61133 21.6318C4.65642 19.2331 6.00574 16.9789 7.62402 14.9229L7.62305 14.9219C12.1404 9.21961 17.5284 4.75684 24.4102 2.58008C24.8617 2.47557 25.409 2.25361 25.8887 2.06738C26.4126 1.86398 26.8612 1.70169 27.1895 1.65918C28.2259 1.52512 29.3151 1.30347 30.376 1.09082C31.4386 0.87783 32.4742 0.673037 33.4434 0.55957ZM13.5479 50.5479L13.54 50.5488C12.519 50.5801 11.5668 50.6071 10.5273 50.7051L9.83496 50.7705L10.1172 51.4062C11.538 54.605 14.724 57.8784 17.3594 60.0615C17.8025 60.4285 18.4944 60.8707 19.1768 61.3018C19.8763 61.7437 20.5783 62.1821 21.0938 62.5635L21.1035 62.5703C21.339 62.7354 22.0735 63.2447 22.6973 63.4785C22.8571 63.5384 23.0343 63.5904 23.21 63.6064C23.3793 63.6219 23.6128 63.6103 23.8203 63.4678C24.0478 63.3115 24.1427 63.0697 24.1621 62.8398C24.1803 62.6234 24.1366 62.3852 24.0605 62.1377C23.9056 61.6332 23.6316 61.1759 23.3809 60.7734C23.1192 60.3535 22.8857 59.9958 22.7285 59.623C22.2461 58.3237 21.7838 57.0051 21.418 55.6816L21.2666 55.1123C21.1777 54.7625 21.0416 54.3964 20.918 54.0645C20.7898 53.7203 20.6748 53.4119 20.6035 53.1328C20.4497 52.5304 20.3483 51.683 20.2529 50.9961L20.1934 50.5654L19.7588 50.5645L16.6602 50.5439C15.626 50.5368 14.5893 50.5332 13.5479 50.5479ZM14.4863 26.6025C12.5598 26.599 10.5547 26.6293 10.0664 26.6348H9.39258C9.15214 26.6346 8.9034 26.6381 8.67188 26.6553C8.18713 26.6913 7.66479 26.791 7.19727 27.084L7.13184 27.124L7.08203 27.1826C6.78634 27.529 6.68838 28.0219 6.63379 28.3955C6.60488 28.5934 6.58413 28.8026 6.56348 28.9775C6.54172 29.1618 6.51982 29.3147 6.49121 29.4395C6.42762 29.7169 6.28988 30.0965 6.14062 30.5244C6.00244 30.9206 5.84719 31.3768 5.80078 31.7266C5.48185 34.1294 5.5394 37.053 5.69238 39.4258C5.76485 40.55 6.02144 41.3809 6.26367 42.1904C6.5045 42.9953 6.73654 43.7927 6.8125 44.917L6.8418 45.3496L7.27344 45.3818C9.64555 45.5612 12.2514 45.5111 14.6133 45.5049C15.8593 45.5052 17.2681 45.5313 18.5391 45.4326L19.0771 45.3916L18.9951 44.8584C18.6988 42.9378 18.6805 39.8609 18.6602 37.834C18.6325 35.0829 18.6451 32.2572 18.7861 29.5215C18.8001 29.2512 18.8053 28.7594 18.8203 28.3643C18.8373 27.9172 18.8669 27.5685 18.9121 27.418L19.0146 27.0771L18.7256 26.8691C18.6481 26.8132 18.5688 26.7858 18.5293 26.7734C18.4806 26.7583 18.43 26.747 18.3838 26.7383C18.2908 26.7207 18.1791 26.7069 18.0586 26.6953C17.8155 26.672 17.496 26.6548 17.1309 26.6416C16.3981 26.6151 15.449 26.6043 14.4863 26.6025ZM35.5293 5.70801L35.4883 5.71094L35.4473 5.71973C32.1782 6.47363 30.4632 9.38652 28.9395 11.7695C27.9461 13.323 27.5288 14.9986 26.9326 16.5254C26.2409 18.2971 25.8796 19.1226 25.5684 21.043L25.4678 21.666L26.0967 21.6221C27.3028 21.5379 28.8417 21.5874 30.1191 21.5928H30.1201L36.585 21.6035C39.7738 21.6113 42.9628 21.5964 46.1514 21.5586L46.7422 21.5508L46.6367 20.9697C46.3805 19.5516 46.1376 18.8501 45.7139 17.5254C45.0763 15.532 43.916 12.5363 42.2549 10.0674C40.6126 7.62646 38.366 5.53701 35.5293 5.70801ZM23.0879 8.46484C21.8382 9.1869 19.7566 10.3655 18.3721 11.2871L17.8262 11.6641C17.1301 12.1668 15.0844 14.0527 13.3115 15.9785C12.4222 16.9446 11.582 17.9417 11.0059 18.7988C10.7192 19.2253 10.4832 19.6371 10.3438 20.0068C10.2145 20.3494 10.1181 20.784 10.3027 21.1621L10.3672 21.293L10.4922 21.3691L10.6963 21.4941L10.8164 21.5664H10.957C12.7431 21.5631 14.5296 21.5753 16.3154 21.6025H16.3193C16.603 21.6045 16.9138 21.6284 17.291 21.6445C17.6502 21.6599 18.0468 21.6664 18.4268 21.623C18.8044 21.5799 19.2032 21.4839 19.5459 21.2686C19.9028 21.0442 20.1745 20.7048 20.3047 20.2344C21.0572 17.5124 21.8263 14.816 22.9082 12.2441C22.9839 12.0652 23.0955 11.8433 23.2305 11.5781C23.3617 11.3202 23.5099 11.0287 23.6416 10.7344C23.7728 10.4412 23.8956 10.1286 23.9707 9.82422C24.0443 9.52604 24.0838 9.19102 24.0059 8.87305L23.96 8.68555L23.8008 8.57812L23.7686 8.55469C23.7603 8.54849 23.7294 8.5242 23.6953 8.50293C23.6532 8.47664 23.6049 8.45305 23.5488 8.43457C23.4976 8.41771 23.4494 8.4091 23.4102 8.40332L23.2383 8.37793L23.0879 8.46484ZM48.0713 8.82617C48.088 9.77217 48.3057 10.3097 48.6035 10.7871C48.8951 11.2545 49.1487 11.521 49.3867 12.1299C49.6714 12.8583 49.9175 13.6637 50.1631 14.4893C50.4065 15.3077 50.6498 16.1504 50.9229 16.9209C51.5071 18.5697 51.6912 19.238 51.9199 20.9658L51.9668 21.3184L52.3154 21.3906C52.6445 21.4583 53.326 21.5063 54.1318 21.541C54.9558 21.5765 55.9569 21.599 56.9551 21.6074C57.9534 21.6158 58.9539 21.6096 59.7754 21.5869C60.5762 21.5647 61.2588 21.5263 61.5869 21.458L61.8379 21.4062L61.9424 21.1719C62.1947 20.6037 61.9267 20.0099 61.7041 19.626C61.4744 19.2297 61.1189 18.7864 60.9648 18.5625C57.9454 14.1729 53.5083 10.5848 48.7842 8.36426L48.0576 8.02344L48.0713 8.82617Z" stroke="#0E409F"/>
<path d="M51.468 51.2598C51.4638 49.4212 51.4319 47.6159 51.511 45.7881C51.552 44.8393 51.7777 44.1291 52.1829 43.6221C52.5824 43.1223 53.2041 42.7594 54.1614 42.5967C54.6898 42.5069 55.1319 42.6712 55.6008 42.9844C55.84 43.1441 56.0731 43.3336 56.3254 43.541C56.5709 43.7428 56.8371 43.9637 57.1165 44.1553L57.1438 44.1729C58.5626 45.0187 59.84 45.9792 61.1448 47.0283C61.4227 47.2517 61.7783 47.4475 62.0754 47.6123C62.3969 47.7906 62.6531 47.9348 62.8245 48.0791C63.4175 48.5789 64.0874 49.0083 64.72 49.4141C65.3634 49.8268 65.9684 50.2158 66.4885 50.6553C67.6914 51.6717 68.9618 52.5681 70.2307 53.4346C71.1867 54.0874 72.1374 54.7204 73.0696 55.3809L73.9954 56.0527C74.3294 56.3027 74.7126 56.5331 75.0432 56.7451C75.3878 56.9661 75.6926 57.1767 75.9387 57.4121C76.6483 58.0907 77.0861 58.5285 77.3557 59.0195C77.5916 59.4492 77.7124 59.953 77.6936 60.7637C77.2082 61.2203 76.5328 61.9515 76.134 62.4746C75.8534 62.5716 75.3327 62.6847 74.6282 62.8008C73.8684 62.9259 72.9562 63.0504 72.0315 63.1777C71.111 63.3045 70.1782 63.4337 69.3909 63.5674C68.6226 63.6978 67.9321 63.8416 67.5334 64.0098C67.2399 64.1337 67.1367 64.4004 67.1116 64.5947C67.0881 64.777 67.1181 64.9672 67.1565 65.1279C67.2355 65.4586 67.3984 65.8543 67.5715 66.2305C67.7478 66.6134 67.9503 67.0084 68.1213 67.3418C68.299 67.6881 68.4313 67.946 68.4895 68.0889C69.1036 69.5967 69.9486 71.0732 70.7258 72.5156C71.5112 73.9732 72.2348 75.4089 72.6624 76.8965L72.6633 76.8975C72.8822 77.6527 72.9636 77.8959 72.9622 78.1455C72.9607 78.3803 72.8821 78.6339 72.6038 79.375L72.5139 79.6094C72.3105 79.7566 72.1196 79.8953 71.9622 80.0596C71.8224 80.2055 71.7141 80.3663 71.6135 80.5615H69.6311C69.3534 80.1315 68.9959 79.7352 68.6858 79.3867C68.3393 78.9972 68.0539 78.6674 67.8772 78.3516L67.8088 78.2168C66.688 75.798 65.556 73.471 64.2581 71.125C64.0525 70.7535 63.9003 70.4319 63.7649 70.1338C63.632 69.8413 63.5059 69.5498 63.3635 69.2715C63.0653 68.6884 62.6883 68.1431 61.9397 67.4561L61.4807 67.0342L61.1692 67.5752C60.5558 68.6393 59.4726 69.8231 58.3167 71.042C57.2479 72.1689 56.1158 73.3296 55.3538 74.3818C54.2618 74.5315 53.5032 74.6073 52.7317 74.0264C52.069 73.5274 51.5755 72.6961 51.511 71.9043C51.4088 70.6477 51.4594 69.2556 51.4651 67.9355V67.9336L51.47 60.8848L51.468 51.2607V51.2598Z" stroke="#0E409F"/>
</svg>
