<svg width="94" height="61" viewBox="0 0 94 61" fill="none" xmlns="http://www.w3.org/2000/svg">
<path d="M84.1714 0.508789C85.0771 0.523108 85.9518 0.55684 86.6294 0.62207C86.8766 0.645872 87.0899 0.676327 87.2651 0.707031C87.2387 0.738669 87.2121 0.773408 87.1821 0.807617C86.9432 1.08051 86.6232 1.40106 86.2808 1.72754C85.9398 2.05262 85.5843 2.37589 85.2769 2.65332L84.562 3.30469L79.8882 7.77734C77.0797 10.414 74.4269 13.1208 71.5151 15.5723C70.6749 16.2797 69.6404 17.1834 68.8804 18.002C68.4547 18.3417 68.0483 18.7461 67.6655 19.1328C67.2647 19.5379 66.8899 19.9223 66.5093 20.2441C64.9794 21.5379 63.6487 22.924 62.2593 24.2871L62.2583 24.2881C59.3499 27.1529 56.3458 29.919 53.2515 32.582L53.2505 32.583C52.7329 33.0304 52.2577 33.4987 51.8071 33.9336C51.3513 34.3735 50.9178 34.7819 50.4604 35.1367C49.5598 35.8353 48.5766 36.3205 47.2144 36.3613C45.8174 36.4031 44.7345 35.9285 43.7349 35.2109C43.2299 34.8485 42.7495 34.4258 42.2583 33.9746C41.774 33.5298 41.269 33.0471 40.7466 32.5977C38.8393 30.9569 36.9901 29.1945 35.1479 27.4131C33.3089 25.6347 31.4743 23.8332 29.6108 22.1279C22.1484 15.2988 14.8096 8.39794 7.43018 1.48145C7.26359 1.32541 7.05212 1.12627 6.88037 0.916992C6.77188 0.784763 6.70916 0.680621 6.67334 0.607422C7.1382 0.559994 7.75928 0.54113 8.39209 0.535156L10.2896 0.536133L16.4595 0.541016L36.7974 0.542969H69.6528L79.8853 0.529297H79.8862C80.4844 0.527721 82.3555 0.480088 84.1714 0.508789Z" stroke="#0E409F"/>
<path d="M31.927 34.6777C32.1323 34.8414 32.3952 35.0726 32.7034 35.3555C33.3187 35.9203 34.0879 36.6688 34.8821 37.4482C35.6733 38.2248 36.4899 39.0315 37.1926 39.7041C37.8858 40.3675 38.4992 40.9308 38.8752 41.2002C43.2323 44.3205 48.0948 44.9931 53.0266 42.5352C54.8841 41.6093 56.4796 40.1468 57.9778 38.6787C59.4689 37.2176 60.854 35.7623 62.3645 34.6865C62.4023 34.6984 62.4587 34.7196 62.5354 34.7588C62.7617 34.8743 63.068 35.0852 63.4397 35.3848C64.1773 35.9792 65.0936 36.854 66.0198 37.792C67.8728 39.6687 69.7009 41.7337 70.1545 42.2197L70.1584 42.2227C70.6193 42.7068 71.0929 43.1035 71.5452 43.4785C71.9983 43.8542 72.4271 44.2078 72.842 44.6289H72.843C74.7735 46.7175 76.7527 48.6527 78.7112 50.5811C80.6721 52.5119 82.6147 54.4367 84.4885 56.5186V56.5195C84.6611 56.712 85.0074 57.0259 85.3821 57.3682C85.7701 57.7226 86.2177 58.1332 86.6311 58.5449C87.0482 58.9603 87.411 59.3579 87.6399 59.6875C87.6885 59.7576 87.7257 59.8218 87.7571 59.877C87.5712 59.9 87.3417 59.9203 87.0735 59.9365C86.5568 59.9678 85.9412 59.9834 85.3108 59.9893C84.0408 60.001 82.7631 59.9756 82.1008 59.9756L72.1418 59.9727H72.1409L8.21606 59.9873C7.92511 59.9869 7.4944 60.0039 7.06763 59.9795C6.85718 59.9675 6.67108 59.9457 6.52759 59.9131C6.52658 59.9129 6.52565 59.9123 6.52466 59.9121C6.55874 59.8146 6.61446 59.7008 6.69067 59.5771C6.81495 59.3756 6.97174 59.1785 7.10962 59.0254L7.23853 58.8887C11.5129 54.6022 15.7518 50.2957 20.0334 46.0205C22.5424 43.5154 25.1751 41.1019 27.6194 38.4609C28.032 38.015 28.9007 37.0603 29.7913 36.1807C30.237 35.7404 30.6812 35.3262 31.0696 35.0078C31.2637 34.8487 31.438 34.7183 31.5872 34.6221C31.6429 34.5861 31.6924 34.5583 31.7346 34.5352C31.7872 34.5721 31.8523 34.6181 31.927 34.6777Z" stroke="#0E409F"/>
<path d="M0.540039 17.2998C0.534622 14.0419 0.468865 10.7364 0.619141 7.51465C0.639918 7.06923 0.65965 6.63627 0.736328 6.23145C0.768607 6.06112 0.810833 5.9032 0.863281 5.75781C0.891679 5.7847 0.920057 5.81343 0.950195 5.8418C1.32906 6.19837 1.85867 6.68452 2.40332 7.18066C3.50113 8.18071 4.6478 9.21196 4.79688 9.35352C6.23395 10.7181 8.04111 12.5508 9.56738 13.9512C9.92401 14.2784 10.3278 14.5496 10.6953 14.7969C11.0712 15.0498 11.411 15.2795 11.7051 15.5449C13.8434 17.8164 16.1275 19.976 18.417 22.1113C20.6803 24.2223 22.9457 26.3085 25.1006 28.4707C25.2084 28.9817 25.234 29.3433 25.2031 29.6182C25.1712 29.9026 25.0808 30.1114 24.9355 30.3115C24.7788 30.5273 24.5576 30.7357 24.2412 31.0176C23.9339 31.2914 23.5532 31.6206 23.1367 32.0518C19.7602 35.5465 16.0396 39.0023 12.7109 42.5947C12.6243 42.6668 12.5268 42.7596 12.4365 42.8506C12.3184 42.9697 12.184 43.1108 12.0518 43.251C11.7765 43.5427 11.5199 43.8165 11.3604 43.957C10.1646 45.0101 9.04136 46.1507 7.94336 47.291C6.84111 48.4357 5.76785 49.5751 4.65332 50.6475C3.93097 51.3425 3.19579 51.9893 2.45312 52.6562C1.91812 53.1367 1.38203 53.6261 0.855469 54.1426C0.636973 53.1946 0.543189 51.9747 0.512695 50.6885C0.473238 49.0241 0.539005 47.3695 0.540039 46.1328L0.544922 33.5996V33.5986L0.540039 17.3008V17.2998Z" stroke="#0E409F"/>
<path d="M93.2141 5.51074C93.4495 6.8024 93.468 8.13124 93.4612 9.49512C93.4465 12.4318 93.4355 15.3694 93.4338 18.3066L93.4348 39.7979L93.4407 49.1416V49.1426C93.442 49.7459 93.521 50.9519 93.4944 52.1914C93.4814 52.795 93.4428 53.3557 93.3616 53.7832C93.3341 53.9274 93.3018 54.0468 93.2698 54.1426C93.2439 54.124 93.2143 54.1063 93.1858 54.085C92.9736 53.9262 92.7103 53.7077 92.4094 53.4424C91.8082 52.9123 91.079 52.2176 90.342 51.4951C89.606 50.7735 88.8674 50.0283 88.2473 49.4004C87.6305 48.7758 87.1243 48.2603 86.8645 48.0059L86.8635 48.0049C85.6759 46.848 84.4988 45.6801 83.3323 44.502L83.3303 44.5C82.668 43.8373 82.058 43.3184 81.5354 42.6582L81.5159 42.6338L81.4934 42.6113L79.5618 40.7148C77.6391 38.8246 75.7452 36.9419 73.8918 34.9629C72.9861 33.9958 71.9504 33.1116 71.0315 32.2412C70.1428 31.3995 69.3316 30.5416 68.7034 29.54C68.7424 29.3467 68.7922 29.1205 68.8557 28.9053C68.9477 28.5936 69.043 28.3834 69.1145 28.2979H69.1155C69.6794 27.6239 70.3611 26.9926 71.0813 26.3652C71.6132 25.9019 72.1757 25.4323 72.7073 24.9609L73.2268 24.4893L85.9514 12.5498L89.4963 9.24219C90.0712 8.71452 90.8845 8.02543 91.6077 7.33203C92.2018 6.76232 92.7856 6.14062 93.2141 5.51074Z" stroke="#0E409F"/>
</svg>
