<svg width="73" height="73" viewBox="0 0 73 73" fill="none" xmlns="http://www.w3.org/2000/svg">
<path d="M19.1562 0.569336C20.9353 0.437603 24.1296 0.532919 26.0283 0.533203L39.3252 0.537109L48.5137 0.533203C49.8139 0.532842 52.3041 0.480511 53.416 0.625977C56.2919 1.00227 60.3352 2.35281 62.708 3.99805C66.1346 6.37413 69.1863 10.4639 70.5781 14.4238C70.6582 14.6518 70.7176 14.9562 70.7803 15.3145C70.8396 15.6534 70.9029 16.0438 70.9941 16.374C71.071 16.6519 71.2354 17.0558 71.3662 17.3936C71.5137 17.7743 71.6127 18.06 71.6299 18.1992C71.8286 19.8169 71.7515 21.7485 71.75 23.457L71.7402 33.7256L71.7441 47.0107L71.7559 48.7764C71.7703 50.5614 71.7748 52.4016 71.6113 54.0684C71.5691 54.3188 71.4711 54.5924 71.3467 54.9092C71.2285 55.2103 71.0811 55.5649 70.9971 55.9053C69.8518 60.5498 67.6685 64.0271 64.6523 66.5635C61.6387 69.0977 57.7644 70.7165 53.1953 71.5977C51.5895 71.6928 49.5298 71.6736 47.665 71.6572L45.8799 71.6465L32.4727 71.6445L24.0293 71.6475H24.0283C22.669 71.6479 20.3489 71.7107 19.1914 71.5479C16.3418 71.1469 13.1802 70.1674 10.666 68.707L10.1729 68.4092C6.28281 65.9276 3.33693 62.2202 1.7959 57.8799L1.65137 57.458C1.52153 57.0563 1.43352 56.6146 1.3418 56.1377C1.25202 55.6709 1.1581 55.1672 1.0166 54.6934C0.313604 52.3391 0.531999 49.8806 0.53418 47.2607V47.2598L0.53125 36.6367V36.6357L0.525391 25.6504C0.524758 23.38 0.437503 21.1372 0.698242 18.9395C1.69466 10.5412 7.88035 3.10609 16.1875 1.24805C17.2007 1.02143 18.1459 0.794056 19.1562 0.569336ZM54.5293 34.7959C53.8227 24.6193 44.983 16.9523 34.8086 17.6914C24.6803 18.4272 17.0556 27.2179 17.7588 37.3486C18.4619 47.4794 27.2284 55.1325 37.3613 54.4619C47.5402 53.7881 55.2357 44.9727 54.5293 34.7959ZM59.1377 12.2793C58.3619 11.7274 57.3923 11.5207 56.459 11.709C54.5944 12.0853 53.3868 13.9018 53.7617 15.7666C54.1367 17.6315 55.9524 18.8395 57.8174 18.4658C59.1651 18.1957 60.2239 17.1508 60.5107 15.8066C60.7977 14.4624 60.2577 13.076 59.1377 12.2793Z" stroke="#0E409F"/>
<path d="M34.3883 24.6826C40.7032 23.6891 46.6209 28.0242 47.5778 34.3447C48.5345 40.6653 44.1645 46.5576 37.8385 47.4775C31.5646 48.3898 25.732 44.0642 24.7828 37.7959C23.8338 31.5272 28.1252 25.668 34.3883 24.6826Z" stroke="#0E409F"/>
</svg>
