<svg width="446" height="456" viewBox="0 0 446 456" fill="none" xmlns="http://www.w3.org/2000/svg">
<path d="M222.612 455.5C217.612 454.5 212.612 453.8 207.712 452.6C151.812 438.9 119.912 382.1 136.112 325.1C141.112 307.5 149.912 292.2 162.512 279.1C173.712 267.5 185.412 256.3 196.812 244.7C207.612 233.7 208.512 217.9 199.212 206.3C190.012 194.9 173.512 191.9 161.212 200.5C153.712 205.7 147.512 212.8 140.912 219.2C134.412 225.5 134.612 225.6 128.112 218.9C123.512 214.2 118.812 209.5 114.112 205C104.212 195.3 89.6121 194.4 78.6121 202.6C68.1121 210.5 64.5121 226 71.6121 237.5C75.4121 243.6 80.9121 248.8 85.9121 254.1C88.6121 257 91.7121 259.4 94.7121 262.1C93.2121 263.8 92.5121 264.7 91.8121 265.5C76.8121 280.5 61.7121 295.6 46.7121 310.6C3.01212 276.2 -10.6879 229.4 8.41212 184.7C26.6121 142 75.5121 120 121.712 133.1C126.912 134.6 131.212 134.4 136.212 132.3C197.912 106.5 263.412 140.4 275.912 205.5C282.312 238.5 273.712 268.8 251.712 294.4C239.812 308.2 226.212 320.5 213.512 333.6C202.012 345.3 201.112 362.2 211.212 373.7C221.512 385.4 238.512 387 251.412 376.6C259.612 370 266.812 362.2 274.212 354.8C297.012 332.1 319.712 309.3 342.412 286.4C374.712 253.8 374.512 209.5 342.012 176.9C301.312 136.1 260.612 95.3 219.912 54.6C218.612 53.3 217.412 51.9 216.312 50.8C233.312 33.9 250.112 17.2 267.312 0C269.412 2 272.012 4.4 274.512 6.9C318.912 51.4 363.112 96.2 407.912 140.3C452.812 184.6 461.112 270.2 409.812 320.9C375.412 354.9 341.812 389.7 307.612 424C290.312 441.4 269.412 451.7 244.912 454.6C243.812 454.7 242.812 455.3 241.812 455.6H222.612V455.5Z" fill="#6CADFD"/>
</svg>
